<svg height="620" viewBox="0 0 620 620" width="620" xmlns="http://www.w3.org/2000/svg"><path d="m387.556965 28.7726913v-17.7713163c.002397-2.99321735-1.216551-5.85797764-3.375301-7.93260372-2.158757-2.0746254-5.070615-3.17969273-8.063017-3.05996316-120.279661 5.94545004-216.168701 102.59417388-221.104514 222.85597088-.013119 2.608074 1.048012 5.106699 2.934341 6.908852 1.886328 1.802154 4.43158 2.748982 7.037778 2.618039h18.330647c5.658594.050925 10.372512-4.32282 10.741759-9.966594 5.193373-99.116088 84.431182-178.3119583 183.599759-183.5025817 7.552227-.9526886 9.971873-5.0932222 9.971873-10.113161zm-163.399384 203.8022777h17.377453c5.570689.015954 10.209193-4.268395 10.631776-9.820115 4.815574-67.548398 58.763025-121.185734 126.371476-125.6450394 5.311148-.3722453 9.333094-4.9476455 9.018679-10.259729v-17.6980323c-.065562-2.9684201-1.329783-5.7840895-3.504977-7.8062987-2.175202-2.0222086-5.076368-3.0789552-8.043329-2.9297749-87.338229 5.7770773-156.903003 75.2893673-162.702821 162.5800623-.14926 2.965394.908046 5.865021 2.931326 8.039068 2.023281 2.174048 4.840441 3.437598 7.810433 3.503128zm163.39953-105.052386v17.771316c-.04914 5.313155-4.095115 9.736101-9.385438 10.259729-35.309206 4.321646-63.164435 32.071542-67.603422 67.347793-.673733 5.426229-5.235342 9.532629-10.705099 9.636817h-15.361079c-8.358778 0-13.381375-5.423-12.758133-11.688763 5.573476-55.01394 49.109705-98.511808 104.154738-104.062966 3.004058-.257141 5.97795.759407 8.195297 2.801352 2.217348 2.041946 3.473991 4.921278 3.463136 7.934722zm203.763329 259.607786c-5.022599 0-9.165322-2.418365-10.118517-9.966596-5.129191-99.239662-84.489825-178.54247-183.783066-183.649147-5.646767-.369052-10.022824-5.080476-9.971873-10.736074v-18.320945c-.131013-2.604818.816319-5.148723 2.619424-7.034053 1.803111-1.88533 4.303055-2.945899 6.912511-2.932787 120.339775 4.914759 217.060608 100.758025 223.010652 220.987481.12896 2.959246-.942421 5.845277-2.971426 8.004269-2.029012 2.158991-4.843908 3.408209-7.806992 3.464642zm-203.763475-163.386185c.065203-2.975119 1.33446-5.796704 3.517763-7.820023 2.183302-2.023319 5.094078-3.075475 8.067205-2.916051 87.310929 5.792564 156.850852 75.280013 162.666163 162.543422.159512 2.971556-.8932 5.880789-2.917589 8.062934-2.024397 2.182152-4.84747 3.450741-7.824166 3.515903h-17.707407c-5.355126.312715-9.950414-3.771653-10.265161-9.12383-4.494552-67.531192-58.131028-121.405127-125.674916-126.231309-5.554663-.422359-9.841281-5.058408-9.82523-10.626148zm105.071269 163.349543h-17.817388c-5.315969-.048973-9.741254-4.092806-10.265161-9.380324-4.327565-35.302394-32.110909-63.146538-67.420123-67.567641-5.429098-.673375-9.537673-5.232573-9.642081-10.699437v-17.294969c-.011759-3.020403 1.249837-5.90611 3.475513-7.949296 2.225669-2.043185 5.209502-3.054825 8.219602-2.786778 55.045033 5.551158 98.581261 49.049023 104.154737 104.062966.257279 3.002474-.75981 5.974788-2.802834 8.190964-2.043024 2.21617-4.923882 3.472145-7.938921 3.461297zm-464.0586565-154.592131c5.0225973 0 9.1653237 2.418364 10.1185172 9.966594 5.1341511 99.279523 84.5568863 178.596922 183.8930503 183.64915 5.646763.369052 10.022824 5.080473 9.971872 10.736072v18.320945c.131012 2.604819-.816317 5.148721-2.619425 7.034051-1.803108 1.885331-4.303057 2.945903-6.912511 2.932791-120.339774-4.914759-217.06060671-100.758023-223.01065165-220.987482-.12896138-2.959247.94242136-5.845278 2.97142923-8.004269 2.02900786-2.15899 4.84390844-3.408208 7.80699182-3.464643zm203.8734555 163.239616c-.065197 2.975118-1.334459 5.796704-3.517761 7.820025-2.183302 2.023315-5.094075 3.075476-8.067208 2.916046-87.257659-5.803827-156.7635701-75.225964-162.6294996-162.433492-.1595088-2.971559.8932044-5.880792 2.9175946-8.062938 2.0243903-2.182145 4.84747-3.450736 7.8241644-3.515899h17.7074053c5.355124-.312714 9.9504145 3.77165 10.2651623 9.12383 4.474847 67.532565 58.095699 121.422166 125.638254 126.267949 5.554661.422364 9.841278 5.058407 9.825227 10.626152zm-105.181252-163.239616h17.780727c5.315968.048972 9.741257 4.092808 10.265163 9.380324 4.327562 35.302395 32.110909 63.146534 67.420119 67.567644 5.429103.673375 9.537678 5.232572 9.641921 10.699429v17.331618c-.020555 2.987367-1.285573 5.831086-3.490963 7.847567s-5.151696 3.023355-8.130668 2.778579c-55.045033-5.551157-98.58126-49.049027-104.154735-104.062966-.223897-2.971579.798023-5.902482 2.821229-8.091392 2.023207-2.188909 4.86566-3.438876 7.847207-3.450803zm105.144591 358.834019c0-5.019933 2.419645-9.160472 9.971872-10.113157 99.293237-5.106679 178.653878-84.409487 183.783069-183.649153.369244-5.643771 5.083166-10.017519 10.741755-9.96659h18.330651c2.606198-.130944 5.151449.815886 7.037779 2.61804 1.886322 1.802154 2.947459 4.300775 2.934334 6.908853-4.937299 120.275143-100.84718 216.928851-221.141169 222.855968-2.960814.128892-5.848374-.941924-8.008507-2.969855-2.160134-2.027937-3.410013-4.841345-3.466477-7.802858zm163.472708-203.765542c2.976696.065162 5.799776 1.333751 7.824166 3.515896 2.024389 2.182145 3.077101 5.091378 2.917596 8.062942-5.815311 87.263402-75.355234 156.750852-162.666162 162.543416-2.973133.159429-5.883907-.892731-8.067208-2.916046-2.183301-2.023322-3.452564-4.844908-3.517761-7.820026v-17.698031c-.31288-5.352287 3.773646-9.945151 9.128661-10.259732 67.568329-4.472473 121.48647-58.06495 126.334822-125.571755.422578-5.551721 5.061081-9.836066 10.631774-9.820022zm-163.399528 105.015655v-17.771321c.04914-5.313152 4.095118-9.736095 9.385433-10.259726 35.309213-4.321648 63.164441-32.071539 67.603427-67.347789.673734-5.426233 5.235342-9.532631 10.7051-9.636819h15.361078c8.358778 0 13.381371 5.422996 12.758133 11.688764-5.573476 55.013936-49.109704 98.511807-104.154737 104.062963-3.004063.257141-5.977953-.759404-8.1953-2.801353-2.217347-2.041942-3.473989-4.921278-3.463134-7.934719zm.000143 98.749887c0-5.019933 2.419645-9.160472 9.971872-10.113157 99.293239-5.106679 178.653873-84.409487 183.783064-183.649153.369252-5.643771 5.083167-10.017519 10.741762-9.96659h18.330645c2.606197-.130944 5.151449.815886 7.037778 2.61804s2.947459 4.300775 2.934341 6.908853c-4.937299 120.275143-100.84718 216.928851-221.141171 222.855968-2.960814.128892-5.848374-.941924-8.008508-2.969855-2.160133-2.027937-3.410012-4.841345-3.466477-7.802858zm163.47271-203.765542c2.976696.065162 5.799777 1.333751 7.824166 3.515896 2.02439 2.182145 3.077101 5.091378 2.917589 8.062942-5.81531 87.263402-75.355227 156.750852-162.666158 162.543416-2.973133.159429-5.883906-.892731-8.067208-2.916046-2.183301-2.023322-3.452563-4.844908-3.517761-7.820026v-17.698031c-.312879-5.352287 3.773647-9.945151 9.128662-10.259732 67.568331-4.472473 121.486466-58.06495 126.334817-125.571755.422586-5.551721 5.061088-9.836066 10.631774-9.820022zm-163.472853 105.015655v-17.771321c.04914-5.313152 4.095118-9.736095 9.385433-10.259726 35.309213-4.321648 63.164441-32.071539 67.603427-67.347789.673734-5.426233 5.235342-9.532631 10.7051-9.636819h15.361078c8.358778 0 13.381371 5.422996 12.758133 11.688764-5.573476 55.013936-49.109704 98.511807-104.154737 104.062963-3.004063.257141-5.977953-.759404-8.1953-2.801353-2.217347-2.041942-3.473989-4.921278-3.463134-7.934719z" fill="#ff5c00"/></svg>